<?xml version="1.0" encoding="UTF-8" standalone="no"?>
<!DOCTYPE svg PUBLIC "-//W3C//DTD SVG 1.1//EN" "http://www.w3.org/Graphics/SVG/1.1/DTD/svg11.dtd">
<svg xmlns="http://www.w3.org/2000/svg" x="0px" y="0px" width="50" height="50" viewBox="0,0,256,256"
style="fill:#000000;">
	<g fill="#ffffff" fill-rule="nonzero" stroke="none" stroke-width="1" stroke-linecap="butt" stroke-linejoin="miter" stroke-miterlimit="10" stroke-dasharray="" stroke-dashoffset="0" font-family="none" font-weight="none" font-size="none" text-anchor="none" style="mix-blend-mode: normal">
		<g transform="scale(5.12,5.12)">
			<path d="M46.59375,0.09375l-0.3125,0.1875l-2.09375,2.125l-0.28125,0.84375l0.5,0.71875l0.90625,0.03125l0.28125,-0.1875l2.125,-2.09375l0.28125,-0.875l-0.53125,-0.71875zM41.65625,5.03125l-0.28125,0.1875l-2.125,2.125l-0.28125,0.84375l0.5,0.75l0.90625,0.03125l0.28125,-0.21875l2.125,-2.125l0.28125,-0.84375l-0.5,-0.71875zM8.8125,9.6875c-0.30078,-0.03125 -0.53125,0.12109 -0.71875,0.3125c-4.94531,5.07813 -8.91406,17.08203 1.5,27.6875c4.0625,4.14453 9.03125,6.34375 14.375,6.34375c5.67969,0 10.62891,-2.41016 13.03125,-4.8125c0.39063,-0.39062 0.38672,-1.01562 0,-1.40625l-27.5,-27.8125c-0.1875,-0.19141 -0.42187,-0.3125 -0.6875,-0.3125zM36.71875,9.96875l-0.3125,0.1875l-2.125,2.125l-0.28125,0.875l0.53125,0.71875l0.875,0.03125l0.3125,-0.1875l2.125,-2.125l0.28125,-0.84375l-0.53125,-0.75zM29.5,15c-1.87109,0 -3.37109,1.46875 -3.46875,3.3125c-0.08594,-0.00391 -0.19531,0.01172 -0.28125,0.03125l-4.1875,1l6.125,6.1875l0.9375,-3.65625c0.27734,0.07031 0.57422,0.125 0.875,0.125c1.93359,0 3.5,-1.56641 3.5,-3.5c0,-1.93359 -1.56641,-3.5 -3.5,-3.5zM7.8125,38.71875l-3.25,3.28125h7c-1.18359,-0.83984 -2.33203,-1.8125 -3.40625,-2.90625c-0.125,-0.12891 -0.22266,-0.24609 -0.34375,-0.375zM1,44c-0.55078,0 -1,0.44531 -1,1v4c0,0.55469 0.44922,1 1,1h16c0.55078,0 1,-0.44531 1,-1v-3.84375c-1.03125,-0.30469 -2.05078,-0.69141 -3.03125,-1.15625z"></path>
		</g>
	</g>
</svg>